<?xml version="1.0" encoding="UTF-8" standalone="no"?>
<!-- Created with Inkscape (http://www.inkscape.org/) -->

<svg
   width="210mm"
   height="297mm"
   viewBox="0 0 210 297"
   version="1.1"
   id="svg5"
   xml:space="preserve"
   inkscape:version="1.2.2 (732a01da63, 2022-12-09)"
   sodipodi:docname="logo_innovacion.svg"
   inkscape:export-filename="logo_innovacion.png"
   inkscape:export-xdpi="96"
   inkscape:export-ydpi="96"
   xmlns:inkscape="http://www.inkscape.org/namespaces/inkscape"
   xmlns:sodipodi="http://sodipodi.sourceforge.net/DTD/sodipodi-0.dtd"
   xmlns="http://www.w3.org/2000/svg"
   xmlns:svg="http://www.w3.org/2000/svg"><sodipodi:namedview
     id="namedview7"
     pagecolor="#ffffff"
     bordercolor="#000000"
     borderopacity="0.25"
     inkscape:showpageshadow="2"
     inkscape:pageopacity="0.0"
     inkscape:pagecheckerboard="0"
     inkscape:deskcolor="#d1d1d1"
     inkscape:document-units="mm"
     showgrid="false"
     inkscape:zoom="1.4503086"
     inkscape:cx="387.50372"
     inkscape:cy="801.55352"
     inkscape:window-width="1920"
     inkscape:window-height="1001"
     inkscape:window-x="-9"
     inkscape:window-y="-9"
     inkscape:window-maximized="1"
     inkscape:current-layer="layer1" /><defs
     id="defs2" /><g
     inkscape:label="Capa 1"
     inkscape:groupmode="layer"
     id="layer1"><path
       style="fill:#000000;stroke-width:0.204383"
       d="m 52.729375,261.12023 c 0,-0.0931 1.751265,-7.13203 1.921546,-7.7234 0.08025,-0.27871 0.270364,-0.36122 0.723152,-0.31387 l 0.614278,0.0642 0.955907,3.7665 c 0.525748,2.07158 0.960311,3.8842 0.965695,4.02806 0.0054,0.14386 -0.172696,0.26156 -0.395735,0.26156 -0.432203,0 -0.455196,-0.0411 -0.79009,-1.41244 l -0.217181,-0.88931 h -1.083244 c -1.199839,0 -1.355048,0.14746 -1.600863,1.52091 -0.115047,0.64281 -0.224045,0.78084 -0.616608,0.78084 -0.262271,0 -0.476857,-0.0374 -0.476857,-0.0831 z m 3.585176,-3.10799 c -0.0045,-0.0288 -0.218208,-0.94685 -0.474938,-2.04017 l -0.466784,-1.98788 -0.21125,0.837 c -0.116188,0.46035 -0.343104,1.37843 -0.504258,2.04018 l -0.293007,1.20319 h 0.979196 c 0.538558,0 0.975527,-0.0236 0.971041,-0.0523 z m 3.202228,-0.88931 v -4.08036 h 1.510345 c 2.27811,0 3.068927,0.60751 3.076695,2.36357 0.0045,0.99788 -0.459956,1.8093 -1.179285,2.06064 -0.198929,0.0695 -0.141118,0.34371 0.238122,1.12947 0.275457,0.57072 0.641236,1.39079 0.812845,1.82237 l 0.312014,0.78469 h -0.545921 c -0.493386,0 -0.614168,-0.16613 -1.255104,-1.72631 -0.656326,-1.59764 -0.756228,-1.73121 -1.340374,-1.79189 l -0.631189,-0.0656 v 1.79188 c 0,1.77184 -0.0056,1.79188 -0.499074,1.79188 h -0.499074 z m 3.296218,-0.73507 c 0.448392,-0.51934 0.472352,-1.57729 0.04584,-2.02435 -0.174795,-0.18322 -0.773684,-0.37904 -1.330863,-0.43516 l -1.013054,-0.10203 v 1.49137 1.49137 h 0.967208 c 0.715747,0 1.061753,-0.1095 1.330863,-0.4212 z m 3.291556,0.73507 v -4.08036 h 2.195925 c 2.062838,0 2.195925,0.0254 2.195925,0.4185 0,0.38749 -0.133087,0.41849 -1.796665,0.41849 h -1.796666 v 1.2555 1.2555 h 1.597036 c 1.452512,0 1.597036,0.0371 1.597036,0.4097 0,0.36627 -0.164017,0.41618 -1.547129,0.47081 l -1.547129,0.0611 -0.05903,1.41243 -0.05902,1.41244 h 1.805787 c 1.793087,0 1.805787,0.004 1.805787,0.52313 v 0.52312 h -2.195932 -2.195925 z m 5.789257,3.9973 c 0,-0.0931 1.751264,-7.13203 1.921546,-7.7234 0.08025,-0.27871 0.270364,-0.36122 0.723152,-0.31387 l 0.614278,0.0642 0.955905,3.7665 c 0.525749,2.07158 0.960313,3.8842 0.965696,4.02806 0.0054,0.14386 -0.172695,0.26156 -0.395733,0.26156 -0.432203,0 -0.455197,-0.0411 -0.790092,-1.41244 l -0.21718,-0.88931 h -1.083244 c -1.199838,0 -1.355047,0.14746 -1.600864,1.52091 -0.115046,0.64281 -0.224044,0.78084 -0.616607,0.78084 -0.262271,0 -0.476857,-0.0374 -0.476857,-0.0831 z m 3.585177,-3.10799 c -0.0045,-0.0288 -0.218209,-0.94685 -0.474939,-2.04017 l -0.466784,-1.98788 -0.21125,0.837 c -0.116188,0.46035 -0.343104,1.37843 -0.504258,2.04018 l -0.293009,1.20319 h 0.979197 c 0.538559,0 0.975528,-0.0236 0.971043,-0.0523 z m 9.590369,-0.88126 v -4.13273 l 1.61548,0.0769 c 1.53071,0.0728 1.64595,0.11263 2.19593,0.75783 0.56902,0.66753 0.58044,0.72794 0.58044,3.07038 0,1.3142 -0.0858,2.62606 -0.19072,2.91526 -0.30126,0.83055 -1.04019,1.1945 -2.69085,1.32536 l -1.51028,0.11973 z m 3.05905,2.63286 c 0.32481,-0.34046 0.42279,-0.77465 0.4935,-2.18674 0.13846,-2.76504 -0.35708,-3.69754 -1.9649,-3.69754 h -0.5895 v 3.27093 3.27092 l 0.82781,-0.11638 c 0.4553,-0.064 1.01019,-0.30755 1.23309,-0.54119 z m 3.52873,-2.64091 v -4.08036 h 2.19592 c 2.06284,0 2.19593,0.0254 2.19593,0.4185 0,0.38749 -0.13309,0.41849 -1.79667,0.41849 h -1.79667 v 1.2555 1.2555 h 1.59704 c 1.45251,0 1.59704,0.0371 1.59704,0.4097 0,0.36627 -0.16402,0.41618 -1.54713,0.47081 l -1.54713,0.0611 -0.059,1.41243 -0.059,1.41244 h 1.80579 c 1.79309,0 1.80579,0.004 1.80579,0.52313 v 0.52312 h -2.19593 -2.19592 z m 12.776294,3.55725 c 0,-0.47139 0.0795,-0.52312 0.80386,-0.52312 h 0.80385 l -0.0552,-3.08644 -0.0552,-3.08643 -0.74862,-0.0649 c -0.58647,-0.0509 -0.74861,-0.15286 -0.74861,-0.47082 0,-0.3746 0.1538,-0.40587 1.9963,-0.40587 1.8425,0 1.9963,0.0312 1.9963,0.40587 0,0.31796 -0.16215,0.41994 -0.74861,0.47082 l -0.74861,0.0649 -0.0552,3.08643 -0.0552,3.08644 h 0.80385 c 0.72436,0 0.80386,0.0517 0.80386,0.52312 v 0.52313 h -1.9963 -1.9963 z m 6.18852,-3.5705 v -4.09363 l 0.6488,0.0656 c 0.64745,0.0654 0.65116,0.0725 1.78665,3.41357 l 1.13786,3.348 0.01,-3.40031 c 0.01,-3.25732 0.0268,-3.40031 0.40928,-3.40031 0.38561,0 0.39927,0.1395 0.39927,4.08036 v 4.08038 h -0.58455 c -0.64897,0 -0.54845,0.21191 -2.13417,-4.49887 l -0.7748,-2.30175 -0.0549,3.40031 c -0.0521,3.22719 -0.0749,3.40031 -0.44916,3.40031 -0.37923,0 -0.39432,-0.15662 -0.39432,-4.09363 z m 6.38815,0 v -4.09363 l 0.6488,0.0656 c 0.64744,0.0654 0.65115,0.0725 1.78665,3.41357 l 1.13786,3.348 0.01,-3.40031 c 0.01,-3.25732 0.0268,-3.40031 0.40928,-3.40031 0.38561,0 0.39926,0.1395 0.39926,4.08036 v 4.08038 h -0.58455 c -0.64897,0 -0.54844,0.21191 -2.13416,-4.49887 l -0.77481,-2.30175 -0.0548,3.40031 c -0.0521,3.22719 -0.0749,3.40031 -0.44917,3.40031 -0.37923,0 -0.39431,-0.15662 -0.39431,-4.09363 z m 7.40826,3.80162 c -0.84036,-0.48823 -1.00546,-1.09934 -1.01305,-3.7498 -0.004,-1.42413 0.0875,-2.66624 0.21593,-2.9295 0.39984,-0.81955 1.0197,-1.17986 2.03819,-1.18478 0.80209,-0.004 1.0614,0.0979 1.54713,0.607 l 0.58353,0.61165 -0.005,2.78866 c -0.005,2.97804 -0.1187,3.37276 -1.13031,3.91504 -0.58146,0.31169 -1.64799,0.28391 -2.23698,-0.0583 z m 2.09311,-0.98592 c 0.32937,-0.38189 0.38029,-0.77638 0.38029,-2.94653 0,-2.23883 -0.0413,-2.53721 -0.38751,-2.80244 -0.51323,-0.39315 -1.40371,-0.37728 -1.79416,0.0319 -0.46999,0.49264 -0.45632,5.2274 0.0167,5.77525 0.44279,0.51286 1.31671,0.48434 1.78469,-0.0583 z m 4.60225,0.19125 c -0.16756,-0.61074 -0.58375,-2.28748 -0.92488,-3.72607 -0.34114,-1.43859 -0.66713,-2.78041 -0.72443,-2.98181 -0.0794,-0.27916 0.0126,-0.36618 0.38728,-0.36618 0.46926,0 0.52582,0.14898 1.25109,3.29568 0.41778,1.81263 0.81463,3.36745 0.88188,3.45517 0.0672,0.0877 0.46884,-1.39535 0.89241,-3.29569 0.72392,-3.24784 0.79804,-3.45516 1.23528,-3.45516 0.25583,0 0.46408,0.0706 0.46278,0.15694 -0.002,0.0863 -0.43567,1.89893 -0.96527,4.02805 l -0.9629,3.87112 -0.6143,0.0642 c -0.58496,0.0611 -0.62887,0.0111 -0.91894,-1.04625 z m 4.66155,1.0036 c 0,-0.0931 1.75127,-7.13203 1.92155,-7.7234 0.0803,-0.27871 0.27036,-0.36122 0.72315,-0.31387 l 0.61428,0.0642 0.9559,3.7665 c 0.52575,2.07158 0.96032,3.8842 0.9657,4.02806 0.005,0.14386 -0.1727,0.26156 -0.39573,0.26156 -0.43221,0 -0.4552,-0.0411 -0.79009,-1.41244 l -0.21719,-0.88931 h -1.08324 c -1.19984,0 -1.35505,0.14746 -1.60086,1.52091 -0.11505,0.64281 -0.22405,0.78084 -0.61661,0.78084 -0.26227,0 -0.47686,-0.0374 -0.47686,-0.0831 z m 3.58518,-3.10799 c -0.005,-0.0288 -0.21821,-0.94685 -0.47494,-2.04017 l -0.46679,-1.98788 -0.21124,0.837 c -0.11619,0.46035 -0.34311,1.37843 -0.50426,2.04018 l -0.29301,1.20319 h 0.97919 c 0.53856,0 0.97553,-0.0236 0.97105,-0.0523 z m 4.17802,2.87727 c -0.84443,-0.48106 -1.01632,-1.2445 -0.94256,-4.18627 l 0.0666,-2.65502 0.59889,-0.50179 c 0.85529,-0.71662 2.24286,-0.69956 3.07894,0.0379 0.72523,0.63964 0.85151,1.55076 0.21494,1.55076 -0.21959,0 -0.39925,-0.0942 -0.39925,-0.20924 0,-0.42256 -0.81458,-1.04625 -1.36647,-1.04625 -1.07866,0 -1.24796,0.48059 -1.18517,3.36422 0.0551,2.53031 0.0669,2.59044 0.56918,2.88551 0.74024,0.43494 1.56981,0.16127 1.84733,-0.60943 0.15417,-0.4281 0.35844,-0.61831 0.66403,-0.61831 0.40286,0 0.42517,0.0592 0.25568,0.67868 -0.10213,0.37327 -0.18569,0.70423 -0.18569,0.73545 0,0.0312 -0.29197,0.24336 -0.6488,0.47141 -0.75503,0.48254 -1.82542,0.52523 -2.56763,0.10241 z m 5.61198,-0.20933 c 0,-0.47139 0.0795,-0.52312 0.80385,-0.52312 h 0.80386 l -0.0552,-3.08644 -0.0552,-3.08643 -0.74861,-0.0649 c -0.58646,-0.0509 -0.74861,-0.15286 -0.74861,-0.47082 0,-0.3746 0.15379,-0.40587 1.9963,-0.40587 1.8425,0 1.99629,0.0312 1.99629,0.40587 0,0.31796 -0.16215,0.41994 -0.74861,0.47082 l -0.74861,0.0649 -0.0552,3.08643 -0.0552,3.08644 h 0.80386 c 0.72435,0 0.80385,0.0517 0.80385,0.52312 v 0.52313 h -1.99629 -1.9963 z m 7.20864,0.23112 c -0.84037,-0.48823 -1.00546,-1.09934 -1.01305,-3.7498 -0.004,-1.42413 0.0875,-2.66624 0.21592,-2.9295 0.39985,-0.81955 1.01971,-1.17986 2.03819,-1.18478 0.80209,-0.004 1.0614,0.0979 1.54714,0.607 l 0.58352,0.61165 -0.005,2.78866 c -0.005,2.97804 -0.1187,3.37276 -1.13031,3.91504 -0.58147,0.31169 -1.64799,0.28391 -2.23698,-0.0583 z m 2.0931,-0.98592 c 0.32938,-0.38189 0.38029,-0.77638 0.38029,-2.94653 0,-2.23883 -0.0413,-2.53721 -0.3875,-2.80244 -0.51323,-0.39315 -1.40372,-0.37728 -1.79416,0.0319 -0.47,0.49264 -0.45632,5.2274 0.0167,5.77525 0.4428,0.51286 1.31672,0.48434 1.78469,-0.0583 z m 3.27492,-2.8157 v -4.09363 l 0.64879,0.0656 c 0.64746,0.0654 0.65116,0.0725 1.78667,3.41357 l 1.13785,3.348 0.01,-3.40031 c 0.01,-3.25732 0.0268,-3.40031 0.40928,-3.40031 0.38561,0 0.39926,0.1395 0.39926,4.08036 v 4.08038 h -0.58455 c -0.64897,0 -0.54844,0.21191 -2.13416,-4.49887 l -0.77481,-2.30175 -0.0549,3.40031 c -0.0521,3.22719 -0.0749,3.40031 -0.44917,3.40031 -0.37922,0 -0.39431,-0.15662 -0.39431,-4.09363 z M 54.9253,252.01237 c 0,-0.38806 1.044292,-1.4808 1.415153,-1.4808 0.497392,0 0.482937,0.0978 -0.141255,0.95559 -0.479076,0.65837 -1.273898,0.98606 -1.273898,0.52521 z m 102.21033,0.056 c 0,-0.37199 1.06686,-1.53681 1.40757,-1.53681 0.50547,0 0.4921,0.0956 -0.13367,0.95559 -0.45021,0.6187 -1.2739,0.99451 -1.2739,0.58122 z"
       id="path179" /><path
       style="fill:#000000;stroke-width:0.0936146"
       d="m 90.804972,245.75343 c -0.221001,-0.20403 -0.22239,-0.21468 -0.221076,-1.69396 7.11e-4,-0.81874 0.02989,-1.53884 0.06481,-1.60021 0.188762,-0.33183 0.445841,-0.35261 4.211529,-0.34056 2.066999,0.008 3.758189,-0.0145 3.758199,-0.0468 1e-5,-0.0323 3.1e-5,-0.69781 3.1e-5,-1.47875 v -1.41993 h -3.83007 -3.830064 l -0.187877,-0.23474 c -0.171283,-0.214 -0.187876,-0.34191 -0.187876,-1.44806 0,-0.93401 0.03096,-1.2652 0.134511,-1.43872 l 0.134511,-0.22542 h 19.2015 c 17.23903,0 19.22114,0.0162 19.39356,0.15788 0.18163,0.14932 0.19204,0.22905 0.19204,1.47062 0,1.17753 -0.0178,1.33364 -0.17282,1.5156 -0.16763,0.19677 -0.28801,0.20284 -4.01794,0.20284 h -3.84512 v 1.46763 1.46761 l 3.89535,0.0284 c 3.74138,0.0273 3.90019,0.0362 4.01793,0.22523 0.0926,0.14879 0.1226,0.55994 0.1226,1.68311 0,1.38215 -0.0128,1.49977 -0.18189,1.67944 -0.17759,0.18866 -0.63409,0.19372 -19.30566,0.2137 -19.083514,0.0204 -19.124247,0.0201 -19.346177,-0.18485 z m 8.676107,-13.35019 c -7.72e-4,-0.0419 -1.73e-4,-2.50672 0.002,-5.47751 0.002,-5.12408 0.01167,-5.42875 0.17329,-5.93323 0.185298,-0.5782 0.113032,-0.48454 3.625111,-4.69908 2.56317,-3.07581 2.22313,-2.88138 5.04002,-2.88201 l 2.00572,-4e-4 0.90728,-0.74173 c 0.499,-0.40796 1.45163,-1.18138 2.11697,-1.71873 0.66534,-0.53734 1.54443,-1.252 1.95354,-1.58813 l 0.74384,-0.61116 0.40762,-1.80265 c 0.54529,-2.41148 1.40293,-6.10667 1.60897,-6.93228 l 0.16645,-0.66704 0.59002,0.23226 c 1.27097,0.50035 2.69117,0.65319 4.04972,0.43585 0.8702,-0.13921 2.31962,-0.70523 3.11287,-1.21559 0.3423,-0.22026 0.63805,-0.40045 0.65721,-0.40045 0.0192,0 5.9e-4,0.21678 -0.0416,0.48175 -0.042,0.26496 -0.33118,2.1248 -0.64257,4.13298 -0.31139,2.00816 -0.71894,4.63246 -0.90563,5.83179 -0.34898,2.24177 -0.71093,4.60669 -1.03224,6.7446 -0.1879,1.25019 -0.3287,1.62476 -0.69657,1.85301 -0.11419,0.0709 -1.02418,0.51657 -2.02218,0.99048 -3.1946,1.51698 -5.03742,2.40588 -5.13606,2.47744 -0.0687,0.0499 -0.0952,1.70818 -0.0931,5.81779 l 0.003,5.74813 h -8.29586 c -4.56273,0 -8.29652,-0.0343 -8.297311,-0.0761 z m 10.056751,-2.40782 c 1.02394,-0.25462 1.80799,-0.78566 2.69251,-1.82361 0.60597,-0.71109 0.85283,-1.08934 1.10451,-1.69231 0.77081,-1.84667 0.77164,-3.97112 0.002,-5.8332 -0.48424,-1.17205 -1.53558,-2.39599 -2.53526,-2.9515 -0.95334,-0.52976 -1.50117,-0.67735 -2.5058,-0.6751 -1.40593,0.003 -2.68365,0.56558 -3.69764,1.62767 -2.07208,2.17036 -2.48035,5.78331 -0.96251,8.5178 0.75186,1.35454 2.14496,2.49458 3.45044,2.8237 0.74021,0.1866 1.71693,0.18921 2.45146,0.008 z m -2.14903,-3.33052 c -0.49617,-0.22832 -0.79269,-0.46331 -1.11792,-0.88586 -0.52658,-0.68416 -0.69495,-1.22323 -0.6949,-2.22492 3e-5,-0.75304 0.0324,-0.93717 0.2551,-1.45558 0.86732,-2.01818 3.17943,-2.40773 4.53799,-0.76456 0.46637,0.56407 0.70554,1.35466 0.70185,2.31996 -0.002,0.65759 -0.0419,0.85228 -0.28719,1.41771 -0.31892,0.73534 -0.88266,1.31521 -1.53095,1.57478 -0.44796,0.17937 -1.4919,0.18971 -1.86398,0.0184 z M 78.327571,206.59119 c -0.331492,-0.68333 -0.839081,-1.72165 -1.127975,-2.30737 -0.766807,-1.55465 -0.787105,-1.41515 0.619798,-4.25974 1.857423,-3.7555 1.962899,-3.95067 2.219043,-4.10613 0.383636,-0.23287 6.171814,-0.22777 6.589091,0.007 0.327939,0.18356 0.419338,0.33577 1.34471,2.23922 0.375599,0.77259 0.985982,2.02087 1.356407,2.77393 0.932522,1.89581 0.933083,1.80167 -0.02226,3.75263 -1.301542,2.65794 -1.534286,3.09112 -1.678238,3.12366 -0.169245,0.0382 -0.295091,-0.20421 -3.331986,-6.41989 -0.636899,-1.30355 -0.852477,-1.67348 -0.975249,-1.67348 -0.06598,0 -0.701367,1.24446 -2.330289,4.56403 -0.533767,1.08774 -1.144487,2.33143 -1.357155,2.76375 -0.260273,0.52909 -0.438401,0.78604 -0.544921,0.78604 -0.111982,0 -0.334467,-0.36326 -0.760962,-1.24244 z m 41.719919,-10.02072 c -2.48941,-0.75649 -4.3429,-3.2122 -4.65947,-6.1734 -0.0448,-0.41934 -0.13103,-0.79022 -0.1947,-0.83764 -0.18156,-0.13523 -1.52438,-1.06583 -3.44094,-2.38463 -2.28369,-1.57142 -5.97913,-4.12015 -7.29001,-5.02789 -0.56401,-0.39056 -1.18368,-0.75183 -1.37706,-0.80282 -0.27296,-0.0721 -0.69097,-0.0237 -1.86918,0.21601 -0.83467,0.16978 -1.906416,0.38002 -2.381661,0.4672 -0.475236,0.0872 -1.019602,0.19842 -1.2097,0.24721 -0.190095,0.0487 -1.978722,0.39066 -3.974738,0.75968 -1.996006,0.36902 -3.697151,0.69459 -3.780319,0.72346 -0.136095,0.0472 -0.151212,0.21978 -0.151212,1.72579 0,1.68478 -0.04376,1.97463 -0.338141,2.23992 -0.09866,0.0889 -0.712443,0.12446 -2.189275,0.12677 l -2.052177,0.003 v 2.69232 2.69231 l -0.218425,0.25638 c -0.216532,0.25416 -0.229314,0.25609 -1.47405,0.22359 -1.716506,-0.0448 -1.586616,0.21692 -1.589082,-3.20226 l -0.0019,-2.66234 h -2.191735 c -2.09675,0 -2.201748,-0.01 -2.422772,-0.2133 l -0.23104,-0.21296 0.02497,-3.28227 c 0.02276,-2.99223 0.03859,-3.29826 0.179234,-3.46325 0.141774,-0.16633 0.418156,-0.18308 3.413091,-0.20697 4.876867,-0.039 4.633308,-0.018 5.246195,-0.44926 0.285145,-0.20063 1.76271,-1.16168 3.28348,-2.13567 3.635839,-2.32862 6.849614,-4.39456 9.980038,-6.41562 3.660439,-2.36324 3.696169,-2.38351 4.199709,-2.38351 0.24314,0 0.56214,0.0792 0.73462,0.18244 0.2714,0.16241 1.4651,1.13794 4.18165,3.41736 0.47525,0.39878 1.40845,1.17512 2.07379,1.72523 0.66532,0.5501 1.73462,1.44044 2.3762,1.97853 0.64156,0.53808 2.11913,1.77045 3.28347,2.7386 1.16434,0.96815 2.4995,2.07849 2.96702,2.46742 l 0.85003,0.70715 0.54246,-0.11732 c 0.74313,-0.16072 1.95498,-0.14431 2.6827,0.0364 1.26153,0.3132 2.6786,1.36504 3.53224,2.62191 1.57121,2.31342 1.78039,5.70344 0.51086,8.27949 -0.17906,0.36335 -0.65908,1.05324 -1.06948,1.53709 -0.62422,0.73597 -0.87586,0.95261 -1.55668,1.34025 -0.44666,0.25433 -1.06483,0.53178 -1.37373,0.61664 -0.79643,0.2187 -2.2157,0.19482 -3.02426,-0.0508 z m 2.50581,-4.66817 c 0.47695,-0.25311 0.9052,-0.72187 1.15097,-1.25981 0.14474,-0.3168 0.18568,-0.58345 0.18685,-1.21707 8.4e-4,-0.69842 -0.0306,-0.87492 -0.22843,-1.26779 -0.69501,-1.37971 -1.98434,-1.86723 -3.08258,-1.16562 -1.32483,0.84637 -1.69141,2.68532 -0.80859,4.05635 0.64135,0.99603 1.82779,1.36023 2.78178,0.85394 z"
       id="path193"
       sodipodi:nodetypes="csscsscccssscssssscccsssssccccssccssscsscsssscssssssscscccsscscsssccssscsccssscssscssscssssscccssssscscssssccccssccsccssssssssssssscscsssssccssccsss" /></g></svg>
